<svg width="48" height="46" viewBox="0 0 48 46" fill="none" xmlns="http://www.w3.org/2000/svg">
<path d="M14 17H14.025H14ZM24 17H24.025H24ZM34 17H34.025H34ZM16.5 32H6.5C5.17392 32 3.90215 31.4732 2.96447 30.5355C2.02678 29.5979 1.5 28.3261 1.5 27V7C1.5 5.67392 2.02678 4.40215 2.96447 3.46447C3.90215 2.52678 5.17392 2 6.5 2H41.5C42.8261 2 44.0979 2.52678 45.0355 3.46447C45.9732 4.40215 46.5 5.67392 46.5 7V27C46.5 28.3261 45.9732 29.5979 45.0355 30.5355C44.0979 31.4732 42.8261 32 41.5 32H29L16.5 44.5V32Z" stroke="#10BC6A" stroke-width="3" stroke-linecap="round" stroke-linejoin="round"/>
</svg>
