<svg width="113" height="32" viewBox="0 0 113 32" fill="none"
  xmlns="http://www.w3.org/2000/svg">
  <path d="M12.9935 11.093V8.18152H1.66028V25.0249H4.83646V18.3357H11.9107V15.5685H4.83646V11.093H12.9935ZM14.5941 25.0249H17.6741V7.9409H14.5941V25.0249ZM31.5887 12.9939H28.5087V19.5147C28.5087 21.6562 27.2094 22.5946 25.7657 22.5946C24.2979 22.5946 23.167 21.6322 23.167 19.6591V12.9939H20.087V20.2847C20.087 23.4368 21.9158 25.2655 24.7791 25.2655C26.5838 25.2655 27.5944 24.5437 28.3162 23.6052H28.5087L28.7734 25.0249H31.5887V12.9939ZM42.3686 21.2231C42.0318 22.2578 41.0693 22.8112 39.7218 22.8112C37.845 22.8112 36.7141 21.56 36.5937 19.8275H45.2561C45.2801 19.4906 45.3042 19.226 45.3042 18.9372C45.3042 14.6301 42.5611 12.7533 39.6015 12.7533C36.2809 12.7533 33.5379 15.1595 33.5379 19.1297C33.5379 22.8353 36.1366 25.2655 39.7218 25.2655C42.7777 25.2655 44.847 23.7015 45.3282 21.2231H42.3686ZM39.6015 15.2076C41.1896 15.2076 42.2964 16.2663 42.3686 17.7582H36.6178C36.8344 16.3145 37.9412 15.2076 39.6015 15.2076ZM47.4745 25.0249H50.5544V18.5041C50.5544 16.3626 51.8537 15.4242 53.3215 15.4242C54.7652 15.4242 55.8961 16.3867 55.8961 18.3597V25.0249H58.9761V17.7341C58.9761 14.582 57.1474 12.7533 54.284 12.7533C52.4793 12.7533 51.4687 13.4752 50.7469 14.4136H50.5544L50.2897 12.9939H47.4745V25.0249Z" fill="#1C1336"/>
  <path d="M67.8282 25.2655C70.9563 25.2655 73.2422 23.5571 73.6512 20.8622H70.5473C70.1623 21.969 69.2238 22.5946 67.8282 22.5946C65.8552 22.5946 64.6039 21.175 64.6039 19.0575C64.6039 16.916 65.9514 15.4242 67.7801 15.4242C69.2238 15.4242 70.2585 16.2904 70.5232 17.3973H73.6031C73.2181 14.2451 70.5713 12.7533 67.7801 12.7533C64.2671 12.7533 61.524 15.2798 61.524 19.0575C61.524 22.6909 64.0746 25.2655 67.8282 25.2655ZM81.4571 25.2655C84.5852 25.2655 86.871 23.5571 87.2801 20.8622H84.1761C83.7911 21.969 82.8527 22.5946 81.4571 22.5946C79.484 22.5946 78.2328 21.175 78.2328 19.0575C78.2328 16.916 79.5803 15.4242 81.409 15.4242C82.8527 15.4242 83.8874 16.2904 84.152 17.3973H87.232C86.847 14.2451 84.2002 12.7533 81.409 12.7533C77.8959 12.7533 75.1529 15.2798 75.1529 19.0575C75.1529 22.6909 77.7034 25.2655 81.4571 25.2655ZM91.099 30.0779C94.612 30.0779 95.5505 27.5755 95.9114 26.5167L100.772 12.9939H97.5957L94.5399 21.8728H94.3474L91.0749 12.9939H87.8988L92.4946 25.0249H93.4571L93.048 26.0596C92.5668 27.2627 91.5321 27.6717 90.4012 27.6717C90.0403 27.6717 89.6072 27.6236 89.15 27.5273V29.8132C89.7034 29.9576 90.305 30.0779 91.099 30.0779Z" fill="#10BC6A"/>
  <path fill-rule="evenodd" clip-rule="evenodd" d="M107.053 3.85114L113 9.79826L111.235 11.5629L105.288 5.61574L107.053 3.85114ZM104.935 5.96857L108.807 9.84026L107.042 11.6049L103.171 7.73317L104.935 5.96857ZM104.583 9.8506L102.818 8.086L101.053 9.8506L102.818 11.6152L104.583 9.8506Z" fill="#10BC6A"/>
</svg>
