<svg width="99" height="28" viewBox="0 0 99 28" fill="none"
  xmlns="http://www.w3.org/2000/svg">
  <path d="M11.35 9.83028V7.28704H1.45028V22H4.22472V16.1569H10.4042V13.7397H4.22472V9.83028H11.35ZM12.7482 22H15.4386V7.07685H12.7482V22ZM27.5932 11.4907H24.9028V17.1868C24.9028 19.0574 23.7678 19.8771 22.5067 19.8771C21.2246 19.8771 20.2367 19.0364 20.2367 17.3129V11.4907H17.5464V17.8594C17.5464 20.6128 19.1438 22.2102 21.645 22.2102C23.2214 22.2102 24.1041 21.5796 24.7347 20.7599H24.9028L25.134 22H27.5932V11.4907ZM37.0097 18.6791C36.7154 19.5829 35.8747 20.0663 34.6976 20.0663C33.0582 20.0663 32.0703 18.9733 31.9652 17.46H39.5319C39.5529 17.1657 39.5739 16.9345 39.5739 16.6823C39.5739 12.92 37.1778 11.2806 34.5925 11.2806C31.692 11.2806 29.2959 13.3824 29.2959 16.8505C29.2959 20.0873 31.5659 22.2102 34.6976 22.2102C37.367 22.2102 39.1746 20.844 39.5949 18.6791H37.0097ZM34.5925 13.4244C35.9798 13.4244 36.9466 14.3493 37.0097 15.6524H31.9862C32.1754 14.3913 33.1423 13.4244 34.5925 13.4244ZM41.4697 22H44.1601V16.304C44.1601 14.4333 45.2951 13.6136 46.5772 13.6136C47.8383 13.6136 48.8262 14.4544 48.8262 16.1779V22H51.5165V15.6314C51.5165 12.878 49.9191 11.2806 47.4179 11.2806C45.8415 11.2806 44.9588 11.9111 44.3282 12.7308H44.1601L43.9289 11.4907H41.4697V22Z" fill="white"/>
  <path d="M59.2491 22.2102C61.9815 22.2102 63.9782 20.7179 64.3355 18.3638H61.6242C61.2879 19.3306 60.4681 19.8771 59.2491 19.8771C57.5255 19.8771 56.4326 18.637 56.4326 16.7874C56.4326 14.9168 57.6096 13.6136 59.207 13.6136C60.4681 13.6136 61.3719 14.3703 61.6031 15.3371H64.2935C63.9572 12.5837 61.6452 11.2806 59.207 11.2806C56.1383 11.2806 53.7422 13.4875 53.7422 16.7874C53.7422 19.9612 55.9702 22.2102 59.2491 22.2102ZM71.1541 22.2102C73.8865 22.2102 75.8832 20.7179 76.2406 18.3638H73.5292C73.1929 19.3306 72.3732 19.8771 71.1541 19.8771C69.4306 19.8771 68.3376 18.637 68.3376 16.7874C68.3376 14.9168 69.5146 13.6136 71.112 13.6136C72.3732 13.6136 73.277 14.3703 73.5082 15.3371H76.1985C75.8622 12.5837 73.5502 11.2806 71.112 11.2806C68.0433 11.2806 65.6472 13.4875 65.6472 16.7874C65.6472 19.9612 67.8752 22.2102 71.1541 22.2102ZM79.5764 26.4139C82.6451 26.4139 83.4649 24.228 83.7801 23.3031L88.0259 11.4907H85.2514L82.5821 19.2466H82.4139L79.5554 11.4907H76.781L80.7955 22H81.6362L81.2789 22.9038C80.8586 23.9547 79.9548 24.312 78.9669 24.312C78.6516 24.312 78.2733 24.27 77.8739 24.1859V26.1827C78.3574 26.3088 78.8828 26.4139 79.5764 26.4139Z" fill="#10BC6A"/>
  <path fill-rule="evenodd" clip-rule="evenodd" d="M93.5124 3.34247L98.7073 8.53738L97.1659 10.0788L91.971 4.88388L93.5124 3.34247ZM91.6626 5.19216L95.0446 8.57414L93.5032 10.1156L90.1212 6.73357L91.6626 5.19216ZM91.3546 8.58326L89.8132 7.04185L88.2717 8.58326L89.8132 10.1247L91.3546 8.58326Z" fill="#10BC6A"/>
</svg>
