<?xml version="1.0" encoding="utf-8"?>
<!-- Generator: Adobe Illustrator 25.4.1, SVG Export Plug-In . SVG Version: 6.00 Build 0)  -->
<svg version="1.1" id="Forma_1_00000038375520415486303010000003168926484113319595_"
	 xmlns="http://www.w3.org/2000/svg" xmlns:xlink="http://www.w3.org/1999/xlink" x="0px" y="0px" viewBox="0 0 512 326"
	 style="enable-background:new 0 0 512 326;" xml:space="preserve">
<g id="Forma_1">
	<g>
		<path d="M508.66,153.05C504.09,146.8,395.14,0,256,0S7.9,146.8,3.33,153.05c-4.33,5.93-4.33,13.97,0,19.9
			C7.9,179.2,116.85,326,256,326s248.09-146.8,252.67-153.05C513,167.02,513,158.98,508.66,153.05z M256,292.28
			c-102.5,0-191.27-97.44-217.55-129.29C64.69,131.11,153.28,33.72,256,33.72c102.49,0,191.26,97.42,217.55,129.29
			C447.3,194.89,358.71,292.28,256,292.28z M256,61.83c-55.82,0-101.24,45.39-101.24,101.17c0,55.79,45.42,101.17,101.24,101.17
			c55.82,0,101.24-45.39,101.24-101.17C357.24,107.21,311.82,61.83,256,61.83z M256,230.45c-37.22,0-67.49-30.26-67.49-67.45
			c0-37.19,30.28-67.45,67.49-67.45c37.22,0,67.49,30.26,67.49,67.45C323.49,200.19,293.22,230.45,256,230.45z"/>
	</g>
</g>
</svg>
