<svg width="8" height="6" viewBox="0 0 8 6" fill="#000000"
  xmlns="http://www.w3.org/2000/svg">
  <path fill-rule="evenodd" clip-rule="evenodd" d="M7.97538 0.991185C7.97767 1.25339 7.87687 1.50608 7.69471 1.6948L3.69471 5.6948C3.50718 5.88205 3.25288 5.98752 2.98771 5.98752C2.72254 5.98752 2.46824 5.88205 2.28071 5.6948L0.280707 3.6948C0.0985479 3.50608 -0.00222115 3.25339 3.7154e-05 2.99119C0.00232597 2.72898 0.10749 2.47825 0.292914 2.29294C0.478309 2.1074 0.729133 2.00217 0.991309 1.99997C1.25352 1.99778 1.50611 2.09861 1.69471 2.28074L2.98771 3.5737L6.28071 0.280736C6.46931 0.0986069 6.72193 -0.00222313 6.98411 -2.58629e-05C7.24631 0.0021714 7.49714 0.107396 7.68253 0.292943C7.86796 0.478246 7.97312 0.728978 7.97538 0.991185Z" fill="currentColor"/>
</svg>
