<svg width="19" height="22" viewBox="0 0 19 22" fill="#000000"
  xmlns="http://www.w3.org/2000/svg">
  <path d="M15 11C16 11 17 11.2 17.9 11.7C18 11.1 18 10.6 18 10V4L9 0L0 4V10C0 15.5 3.8 20.7 9 22C9.4 21.9 9.7 21.8 10 21.7C9 20.5 8.5 19 8.5 17.5C8.5 13.9 11.4 11 15 11ZM15 13.5C16.1 13.5 17.1 13.9 17.8 14.7L19 13.5V17.5H15L16.8 15.7C16.3 15.3 15.7 15 15 15C13.6 15 12.5 16.1 12.5 17.5C12.5 18.9 13.6 20 15 20C15.8 20 16.5 19.6 17 19H18.7C18.1 20.5 16.7 21.5 15 21.5C12.8 21.5 11 19.7 11 17.5C11 15.3 12.8 13.5 15 13.5Z" fill="currentColor"/>
</svg>
