<svg width="23" height="19" viewBox="0 0 23 19" fill="#000000"
  xmlns="http://www.w3.org/2000/svg">
  <path d="M19 8V9.5C21.21 9.5 23 11.29 23 13.5C23 14.32 22.75 15.08 22.33 15.71L21.24 14.62C21.41 14.28 21.5 13.9 21.5 13.5C21.5 12.12 20.38 11 19 11V12.5L16.75 10.25L16.72 10.22C16.78 10.17 16.85 10.13 19 8ZM19 19V17.5C16.79 17.5 15 15.71 15 13.5C15 12.68 15.25 11.92 15.67 11.29L16.76 12.38C16.59 12.72 16.5 13.1 16.5 13.5C16.5 14.88 17.62 16 19 16V14.5L21.25 16.75L21.28 16.78C21.22 16.83 21.15 16.87 19 19ZM13 13.5C13 9.91 15.91 7 19.5 7C20.78 7 21.97 7.38 23 8C22.13 6.9 20.84 6.14 19.35 6.03C18.67 2.59 15.64 0 12 0C9.11 0 6.6 1.64 5.35 4.03C2.34 4.36 0 6.9 0 10C0 13.31 2.69 16 6 16H13.5C13.18 15.23 13 14.39 13 13.5Z" fill="currentColor"/>
</svg>
