<svg width="16" height="16" viewBox="0 0 16 16" fill="#000000"
  xmlns="http://www.w3.org/2000/svg">
  <path d="M13.0004 6C13.6096 6.00002 14.2043 5.8146 14.7055 5.4684C15.2067 5.1222 15.5907 4.63162 15.8063 4.06191C16.0219 3.49219 16.059 2.87034 15.9126 2.27904C15.7662 1.68774 15.4433 1.15501 14.9868 0.751702C14.5302 0.348394 13.9618 0.0936156 13.3569 0.0212481C12.7521 -0.0511194 12.1395 0.0623529 11.6008 0.346575C11.062 0.630798 10.6225 1.0723 10.3407 1.61238C10.059 2.15245 9.94829 2.7655 10.0234 3.37L5.08342 5.84C4.65965 5.43136 4.12501 5.15642 3.54611 5.04945C2.96721 4.94247 2.36962 5.00819 1.8278 5.2384C1.28598 5.46862 0.823865 5.85317 0.499025 6.34414C0.174185 6.83511 0.000976562 7.4108 0.000976562 7.9995C0.000976563 8.58821 0.174185 9.1639 0.499025 9.65487C0.823865 10.1458 1.28598 10.5304 1.8278 10.7606C2.36962 10.9908 2.96721 11.0565 3.54611 10.9496C4.12501 10.8426 4.65965 10.5676 5.08342 10.159L10.0234 12.629C9.93591 13.3312 10.0995 14.0418 10.4852 14.6351C10.8709 15.2284 11.454 15.6663 12.1313 15.8713C12.8086 16.0763 13.5366 16.0353 14.1866 15.7555C14.8366 15.4757 15.3668 14.9751 15.6834 14.3422C16 13.7093 16.0827 12.9849 15.9169 12.2969C15.751 11.6089 15.3473 11.0017 14.7771 10.5826C14.2069 10.1635 13.5069 9.95951 12.8007 10.0066C12.0946 10.0537 11.4279 10.3489 10.9184 10.84L5.97842 8.37C6.00868 8.12426 6.00868 7.87574 5.97842 7.63L10.9184 5.16C11.4564 5.68 12.1904 6 13.0004 6Z" fill="currentColor"/>
</svg>
