<?xml version="1.0" encoding="utf-8"?>
<!-- Generator: Adobe Illustrator 25.4.1, SVG Export Plug-In . SVG Version: 6.00 Build 0)  -->
<svg version="1.1" id="Forma_1_00000163061826371189944310000006305861700378395322_"
	 xmlns="http://www.w3.org/2000/svg" xmlns:xlink="http://www.w3.org/1999/xlink" x="0px" y="0px" viewBox="0 0 304 408"
	 style="enable-background:new 0 0 304 408;" xml:space="preserve">
<g id="Forma_1">
	<g>
		<path d="M35.68,388.33c0.46,11,9.51,19.68,20.51,19.68h191.63c11,0,20.05-8.68,20.51-19.68l13.68-288.98H21.99L35.68,388.33z
			 M195.35,171.13c0-4.6,3.73-8.34,8.34-8.34h13.34c4.6,0,8.34,3.73,8.34,8.34v165.1c0,4.61-3.73,8.34-8.34,8.34h-13.34
			c-4.6,0-8.34-3.73-8.34-8.34V171.13z M137,171.13c0-4.6,3.73-8.34,8.34-8.34h13.34c4.6,0,8.34,3.73,8.34,8.34v165.1
			c0,4.61-3.73,8.34-8.34,8.34h-13.34c-4.6,0-8.34-3.73-8.34-8.34V171.13z M78.64,171.13c0-4.6,3.73-8.34,8.34-8.34h13.34
			c4.6,0,8.34,3.73,8.34,8.34v165.1c0,4.61-3.73,8.34-8.34,8.34H86.98c-4.6,0-8.34-3.73-8.34-8.34V171.13z M291.12,21.02h-88.4V4.3
			c0-2.37-1.92-4.3-4.3-4.3h-92.83c-2.37,0-4.3,1.93-4.3,4.3v16.72H12.88C5.76,21.02,0,26.78,0,33.9v40.48h304V33.9
			C304,26.79,298.23,21.02,291.12,21.02z"/>
	</g>
</g>
</svg>
