<svg width="18" height="18" viewBox="0 0 18 18" fill="#000000"
  xmlns="http://www.w3.org/2000/svg">
  <path d="M9 18C13.9706 18 18 13.9706 18 9C18 4.02944 13.9706 0 9 0C4.02944 0 0 4.02944 0 9C0 13.9706 4.02944 18 9 18ZM12.6947 7.69486L8.69471 11.6949C8.50718 11.8821 8.25288 11.9876 7.98771 11.9876C7.72254 11.9876 7.46824 11.8821 7.28071 11.6949L5.28071 9.69486C5.09855 9.50614 4.99778 9.25345 5.00004 8.99125C5.00233 8.72904 5.10749 8.47831 5.29291 8.293C5.47831 8.10746 5.72913 8.00223 5.99131 8.00004C6.25352 7.99784 6.50611 8.09867 6.69471 8.2808L7.98771 9.57377L11.2807 6.2808C11.4693 6.09867 11.7219 5.99784 11.9841 6.00004C12.2463 6.00223 12.4971 6.10746 12.6825 6.293C12.868 6.47831 12.9731 6.72904 12.9754 6.99125C12.9777 7.25345 12.8769 7.50614 12.6947 7.69486Z" fill="currentColor"/>
</svg>
