<svg width="20" height="19" viewBox="0 0 20 19" fill="#000000"
  xmlns="http://www.w3.org/2000/svg">
  <path d="M18 0H2C0.9 0 0 0.89 0 2V14C0 15.11 0.9 16 2 16H9.68C9.57 15.5 9.5 15 9.5 14.5C9.5 10.91 12.41 8 16 8C17.5 8 18.9 8.53 20 9.4V2C20 0.89 19.11 0 18 0ZM18 7H2V4H18V7ZM18.83 11.67L20 10.5V14.5H16L17.77 12.73C17.32 12.28 16.69 12 16 12C14.62 12 13.5 13.12 13.5 14.5C13.5 15.88 14.62 17 16 17C16.82 17 17.54 16.61 18 16H19.71C19.12 17.47 17.68 18.5 16 18.5C13.79 18.5 12 16.71 12 14.5C12 12.29 13.79 10.5 16 10.5C17.11 10.5 18.11 10.95 18.83 11.67Z" fill="currentColor"/>
</svg>
