<svg width="56" height="16" viewBox="0 0 56 16" fill="none"
  xmlns="http://www.w3.org/2000/svg">
  <path d="M9.50815 7.99213L15.5903 1.89498C15.7919 1.68946 15.9044 1.41737 15.9044 1.1288C15.9044 0.527403 15.4156 0.0390136 14.8142 0.0390136C14.5212 0.0390136 14.2466 0.153836 14.0395 0.363476C14.0389 0.364688 7.96282 6.43722 7.96282 6.43722L1.859 0.354381C1.65275 0.151045 1.37946 0.0390136 1.08967 0.0390136C0.489 0.0390136 0 0.527162 0 1.12795C0 1.42101 0.117005 1.69601 0.327009 1.90322L6.40828 7.98364L0.330162 14.0731C0.11652 14.2835 0 14.5591 0 14.8535C0 15.4548 0.489 15.9426 1.08967 15.9426C1.37994 15.9426 1.65348 15.8299 1.859 15.6243L7.95337 9.53818L14.0246 15.6021C14.2399 15.8247 14.5177 15.9433 14.8142 15.9433C15.4149 15.9433 15.9038 15.4548 15.9038 14.8535C15.9038 14.5634 15.7914 14.2908 15.5869 14.0853L9.50815 7.99213Z" fill="white"/>
  <path d="M45.6653 7.99039C45.6653 9.08237 46.5532 9.97064 47.6465 9.97064C48.7373 9.97064 49.6255 9.08237 49.6255 7.99039C49.6255 6.89818 48.7373 6.01003 47.6465 6.01003C46.5532 6.01003 45.6653 6.89818 45.6653 7.99039Z" fill="white"/>
  <path d="M41.9095 7.99134C41.9095 4.82915 44.482 2.25623 47.6445 2.25623C50.8055 2.25623 53.3785 4.82915 53.3785 7.99134C53.3785 11.1528 50.8055 13.7246 47.6445 13.7246C44.482 13.7246 41.9095 11.1528 41.9095 7.99134ZM39.6536 7.99134C39.6536 12.3968 43.2383 15.9811 47.6445 15.9811C52.0506 15.9811 55.6372 12.3968 55.6372 7.99134C55.6372 3.58525 52.0506 2.25845e-05 47.6445 2.25845e-05C43.2383 2.25845e-05 39.6536 3.58525 39.6536 7.99134Z" fill="white"/>
  <path d="M39.0863 0.136685L38.751 0.135715C37.7445 0.135715 36.7738 0.453145 35.963 1.07794C35.8562 0.589066 35.4192 0.221195 34.8987 0.221195C34.2996 0.221195 33.8196 0.701222 33.8181 1.30153C33.8181 1.30371 33.8218 14.7602 33.8218 14.7602C33.8233 15.3594 34.3121 15.8465 34.9115 15.8465C35.5109 15.8465 35.9995 15.3594 36.0011 14.7589C36.0011 14.7562 36.0016 6.48349 36.0016 6.48349C36.0016 3.72531 36.2538 2.61139 38.6164 2.31615C38.8348 2.28898 39.0723 2.29323 39.0733 2.29323C39.7198 2.27104 40.1792 1.82678 40.1792 1.22635C40.1792 0.625563 39.6888 0.136685 39.0863 0.136685Z" fill="white"/>
  <path d="M18.1623 6.67575C18.1623 6.64593 18.1646 6.61489 18.1661 6.58421C18.7988 4.0832 21.0638 2.23244 23.7614 2.23244C26.4916 2.23244 28.7774 4.12866 29.3777 6.67575H18.1623ZM31.6093 6.46999C31.1397 4.24664 29.9224 2.42038 28.0689 1.24753C25.3595 -0.472637 21.7816 -0.377454 19.1646 1.48361C17.0299 3.00226 15.7976 5.48654 15.7976 8.04563C15.7976 8.68728 15.875 9.335 16.036 9.97253C16.8421 13.1434 19.568 15.5438 22.818 15.9416C23.7824 16.0584 24.7211 16.0025 25.6931 15.7508C26.5284 15.5476 27.3367 15.2088 28.0814 14.7316C28.8544 14.2347 29.5001 13.5795 30.1255 12.7951C30.1381 12.7807 30.1509 12.7679 30.1635 12.7528C30.5976 12.2144 30.5171 11.4489 30.0401 11.0834C29.6377 10.7751 28.9624 10.6501 28.431 11.3306C28.3167 11.4934 28.1893 11.6608 28.049 11.8283C27.6265 12.2952 27.1022 12.7476 26.474 13.0985C25.6746 13.5255 24.7636 13.7696 23.7952 13.775C20.6255 13.7398 18.9294 11.5272 18.326 9.94792C18.2207 9.65304 18.1394 9.34712 18.0828 9.03212C18.0754 8.97319 18.0699 8.91632 18.0678 8.86394C18.7231 8.86394 29.4424 8.86212 29.4424 8.86212C31.0018 8.82939 31.8411 7.72869 31.6093 6.46999Z" fill="white"/>
</svg>
