<svg width="33" height="33" viewBox="0 0 33 33" fill="none"
  xmlns="http://www.w3.org/2000/svg">
  <path d="M16.4995 0C7.38599 0 0 7.38766 0 16.5C0 25.6115 7.38599 33 16.4995 33C25.6104 33 33 25.6115 33 16.5C33 7.38766 25.6104 0 16.4995 0Z" fill="#13B5EA"/>
  <path d="M16.821 13.1529C16.2292 12.7862 15.5386 12.5925 14.8238 12.5925C14.0351 12.5925 13.2841 12.8238 12.6521 13.2616C11.6643 13.9463 11.0746 15.0647 11.0746 16.2536C11.0746 16.552 11.1125 16.8483 11.187 17.1341C11.5667 18.5817 12.8435 19.6767 14.3643 19.8586C14.5114 19.8757 14.6586 19.8845 14.8019 19.8845C15.1066 19.8845 15.403 19.8467 15.7077 19.7694C16.1037 19.6766 16.4811 19.5202 16.8296 19.3049C17.1588 19.097 17.462 18.8168 17.7809 18.426L17.8018 18.4049C17.908 18.2758 17.9573 18.1097 17.9372 17.9495C17.9191 17.8061 17.8487 17.6823 17.7391 17.6011C17.6351 17.523 17.5113 17.48 17.3905 17.48C17.2727 17.48 17.0997 17.5216 16.9433 17.7203L16.931 17.7362C16.8794 17.8034 16.8259 17.8728 16.7644 17.9417C16.5537 18.1724 16.3114 18.3625 16.0449 18.5065C15.6634 18.7048 15.2512 18.8068 14.8207 18.8098C13.4684 18.7954 12.6403 17.9181 12.3167 17.1034C12.2659 16.9567 12.2296 16.8228 12.2062 16.6987C12.2058 16.686 12.2049 16.6729 12.204 16.6599L17.4398 16.659C17.8035 16.6515 18.1082 16.522 18.2976 16.2946C18.469 16.0888 18.5334 15.8195 18.4787 15.5356C18.2558 14.5071 17.6826 13.6831 16.821 13.1529ZM12.2452 15.6011C12.5437 14.46 13.5959 13.6635 14.8048 13.6635C16.0201 13.6635 17.0673 14.4579 17.3672 15.6011H12.2452ZM25.8818 15.3005C25.3549 15.3005 24.9262 15.7173 24.9262 16.2294C24.9262 16.7418 25.3549 17.1585 25.8818 17.1585C26.4077 17.1585 26.8355 16.7418 26.8355 16.2294C26.8355 15.7173 26.4077 15.3005 25.8818 15.3005ZM22.4544 13.1741C22.4544 12.8831 22.2103 12.6463 21.911 12.6463L21.758 12.6442C21.2935 12.6442 20.8543 12.7829 20.4844 13.0459C20.4136 12.8329 20.2064 12.6832 19.9728 12.6832C19.6717 12.6832 19.4343 12.9132 19.4325 13.2071L19.4342 19.2885C19.4362 19.5782 19.6781 19.8139 19.9737 19.8139C20.271 19.8139 20.5131 19.5781 20.5131 19.2883V15.5482C20.5131 14.3364 20.6202 13.8299 21.6975 13.7001C21.7868 13.6897 21.8828 13.689 21.9071 13.689C22.2242 13.6778 22.4544 13.4614 22.4544 13.1741ZM8.24611 16.2294L11.0402 13.4978C11.1424 13.4001 11.1987 13.2687 11.1987 13.128C11.1987 12.8374 10.9551 12.6009 10.6556 12.6009C10.5107 12.6009 10.374 12.6569 10.2708 12.7583L7.47655 15.4761L4.67118 12.7532C4.56889 12.6551 4.43335 12.6009 4.28933 12.6009C3.99135 12.6009 3.74902 12.8374 3.74902 13.128C3.74902 13.269 3.80686 13.4029 3.91187 13.5047L6.70793 16.2273L3.91605 18.9532C3.80833 19.0534 3.74902 19.188 3.74902 19.3319C3.74902 19.6224 3.99135 19.8588 4.28933 19.8588C4.43115 19.8588 4.5667 19.805 4.67139 19.7067L7.47383 16.978L10.2641 19.694C10.3711 19.8011 10.5101 19.8601 10.6556 19.8601C10.9551 19.8601 11.1987 19.6232 11.1987 19.3319C11.1987 19.1928 11.1425 19.061 11.0404 18.9605L8.24611 16.2294ZM25.8818 12.5827C23.8178 12.5827 22.1387 14.2186 22.1387 16.2294C22.1387 18.2397 23.8178 19.8752 25.8818 19.8752C27.9447 19.8752 29.623 18.2397 29.623 16.2294C29.623 14.2186 27.9447 12.5827 25.8818 12.5827ZM25.8818 18.7845C24.4348 18.7845 23.2577 17.6383 23.2577 16.2294C23.2577 14.8189 24.4348 13.6714 25.8818 13.6714C27.3272 13.6714 28.5031 14.8189 28.5031 16.2294C28.5031 17.6383 27.3272 18.7845 25.8818 18.7845Z" fill="white"/>
</svg>
